<mxfile host="Electron" agent="Mozilla/5.0 (Windows NT 10.0; Win64; x64) AppleWebKit/537.36 (KHTML, like Gecko) draw.io/24.7.8 Chrome/128.0.6613.36 Electron/32.0.1 Safari/537.36" version="24.7.8">
  <diagram name="Page-1" id="qyirfH4pjOH3-ylPcjwR">
    <mxGraphModel dx="1098" dy="988" grid="1" gridSize="10" guides="1" tooltips="1" connect="1" arrows="1" fold="1" page="1" pageScale="1" pageWidth="850" pageHeight="1100" math="0" shadow="0">
      <root>
        <mxCell id="0" />
        <mxCell id="1" parent="0" />
        <mxCell id="fRcELl-Yo40BzhrVJfct-1" value="" style="endArrow=none;html=1;rounded=0;strokeWidth=2;" parent="1" edge="1">
          <mxGeometry width="50" height="50" relative="1" as="geometry">
            <mxPoint x="380" y="360" as="sourcePoint" />
            <mxPoint x="380" y="220" as="targetPoint" />
          </mxGeometry>
        </mxCell>
        <mxCell id="fRcELl-Yo40BzhrVJfct-2" value="" style="rounded=0;whiteSpace=wrap;html=1;" parent="1" vertex="1">
          <mxGeometry x="380" y="260" width="20" height="20" as="geometry" />
        </mxCell>
        <mxCell id="fRcELl-Yo40BzhrVJfct-3" value="" style="rounded=0;whiteSpace=wrap;html=1;" parent="1" vertex="1">
          <mxGeometry x="400" y="260" width="20" height="20" as="geometry" />
        </mxCell>
        <mxCell id="fRcELl-Yo40BzhrVJfct-4" value="" style="rounded=0;whiteSpace=wrap;html=1;" parent="1" vertex="1">
          <mxGeometry x="420" y="260" width="20" height="20" as="geometry" />
        </mxCell>
        <mxCell id="fRcELl-Yo40BzhrVJfct-5" value="" style="rounded=0;whiteSpace=wrap;html=1;" parent="1" vertex="1">
          <mxGeometry x="440" y="260" width="20" height="20" as="geometry" />
        </mxCell>
        <mxCell id="fRcELl-Yo40BzhrVJfct-6" value="" style="rounded=0;whiteSpace=wrap;html=1;" parent="1" vertex="1">
          <mxGeometry x="460" y="260" width="20" height="20" as="geometry" />
        </mxCell>
        <mxCell id="fRcELl-Yo40BzhrVJfct-7" value="" style="rounded=0;whiteSpace=wrap;html=1;" parent="1" vertex="1">
          <mxGeometry x="490" y="290" width="20" height="20" as="geometry" />
        </mxCell>
        <mxCell id="fRcELl-Yo40BzhrVJfct-8" value="" style="rounded=0;whiteSpace=wrap;html=1;" parent="1" vertex="1">
          <mxGeometry x="510" y="290" width="20" height="20" as="geometry" />
        </mxCell>
        <mxCell id="fRcELl-Yo40BzhrVJfct-9" value="" style="rounded=0;whiteSpace=wrap;html=1;" parent="1" vertex="1">
          <mxGeometry x="530" y="290" width="20" height="20" as="geometry" />
        </mxCell>
        <mxCell id="fRcELl-Yo40BzhrVJfct-10" value="" style="rounded=0;whiteSpace=wrap;html=1;" parent="1" vertex="1">
          <mxGeometry x="550" y="290" width="20" height="20" as="geometry" />
        </mxCell>
        <mxCell id="fRcELl-Yo40BzhrVJfct-11" value="" style="rounded=0;whiteSpace=wrap;html=1;" parent="1" vertex="1">
          <mxGeometry x="570" y="290" width="20" height="20" as="geometry" />
        </mxCell>
        <mxCell id="fRcELl-Yo40BzhrVJfct-12" value="" style="verticalLabelPosition=bottom;shadow=0;dashed=0;align=center;html=1;verticalAlign=top;strokeWidth=1;shape=mxgraph.mockup.markup.curlyBrace;whiteSpace=wrap;strokeColor=#999999;" parent="1" vertex="1">
          <mxGeometry x="380" y="240" width="100" height="20" as="geometry" />
        </mxCell>
        <mxCell id="fRcELl-Yo40BzhrVJfct-13" value="" style="verticalLabelPosition=bottom;shadow=0;dashed=0;align=center;html=1;verticalAlign=top;strokeWidth=1;shape=mxgraph.mockup.markup.curlyBrace;whiteSpace=wrap;strokeColor=#999999;rotation=-180;" parent="1" vertex="1">
          <mxGeometry x="490" y="310" width="100" height="20" as="geometry" />
        </mxCell>
        <mxCell id="fRcELl-Yo40BzhrVJfct-15" value="" style="rounded=0;whiteSpace=wrap;html=1;" parent="1" vertex="1">
          <mxGeometry x="380" y="320" width="10" height="20" as="geometry" />
        </mxCell>
        <mxCell id="fRcELl-Yo40BzhrVJfct-16" value="" style="rounded=0;whiteSpace=wrap;html=1;" parent="1" vertex="1">
          <mxGeometry x="390" y="320" width="10" height="20" as="geometry" />
        </mxCell>
        <mxCell id="fRcELl-Yo40BzhrVJfct-17" value="" style="rounded=0;whiteSpace=wrap;html=1;" parent="1" vertex="1">
          <mxGeometry x="400" y="320" width="10" height="20" as="geometry" />
        </mxCell>
        <mxCell id="fRcELl-Yo40BzhrVJfct-18" value="" style="rounded=0;whiteSpace=wrap;html=1;" parent="1" vertex="1">
          <mxGeometry x="410" y="320" width="10" height="20" as="geometry" />
        </mxCell>
        <mxCell id="fRcELl-Yo40BzhrVJfct-19" value="" style="rounded=0;whiteSpace=wrap;html=1;" parent="1" vertex="1">
          <mxGeometry x="420" y="320" width="10" height="20" as="geometry" />
        </mxCell>
        <mxCell id="fRcELl-Yo40BzhrVJfct-20" value="" style="rounded=0;whiteSpace=wrap;html=1;" parent="1" vertex="1">
          <mxGeometry x="430" y="320" width="10" height="20" as="geometry" />
        </mxCell>
        <mxCell id="fRcELl-Yo40BzhrVJfct-21" value="" style="rounded=0;whiteSpace=wrap;html=1;" parent="1" vertex="1">
          <mxGeometry x="440" y="320" width="10" height="20" as="geometry" />
        </mxCell>
        <mxCell id="fRcELl-Yo40BzhrVJfct-22" value="" style="rounded=0;whiteSpace=wrap;html=1;" parent="1" vertex="1">
          <mxGeometry x="450" y="320" width="10" height="20" as="geometry" />
        </mxCell>
        <mxCell id="fRcELl-Yo40BzhrVJfct-23" value="" style="verticalLabelPosition=bottom;shadow=0;dashed=0;align=center;html=1;verticalAlign=top;strokeWidth=1;shape=mxgraph.mockup.markup.curlyBrace;whiteSpace=wrap;strokeColor=#999999;rotation=-180;" parent="1" vertex="1">
          <mxGeometry x="380" y="340" width="80" height="20" as="geometry" />
        </mxCell>
        <mxCell id="fRcELl-Yo40BzhrVJfct-24" value="" style="endArrow=none;dashed=1;html=1;rounded=0;" parent="1" edge="1">
          <mxGeometry width="50" height="50" relative="1" as="geometry">
            <mxPoint x="480" y="280" as="sourcePoint" />
            <mxPoint x="480" y="220" as="targetPoint" />
          </mxGeometry>
        </mxCell>
        <mxCell id="fRcELl-Yo40BzhrVJfct-25" value="" style="endArrow=none;dashed=1;html=1;rounded=0;" parent="1" edge="1">
          <mxGeometry width="50" height="50" relative="1" as="geometry">
            <mxPoint x="460" y="370" as="sourcePoint" />
            <mxPoint x="459.43" y="320" as="targetPoint" />
          </mxGeometry>
        </mxCell>
        <mxCell id="fRcELl-Yo40BzhrVJfct-26" value="" style="rounded=0;whiteSpace=wrap;html=1;" parent="1" vertex="1">
          <mxGeometry x="280" y="290" width="20" height="20" as="geometry" />
        </mxCell>
        <mxCell id="fRcELl-Yo40BzhrVJfct-27" value="" style="rounded=0;whiteSpace=wrap;html=1;" parent="1" vertex="1">
          <mxGeometry x="300" y="290" width="20" height="20" as="geometry" />
        </mxCell>
        <mxCell id="fRcELl-Yo40BzhrVJfct-28" value="" style="rounded=0;whiteSpace=wrap;html=1;" parent="1" vertex="1">
          <mxGeometry x="320" y="290" width="20" height="20" as="geometry" />
        </mxCell>
        <mxCell id="fRcELl-Yo40BzhrVJfct-29" value="" style="rounded=0;whiteSpace=wrap;html=1;" parent="1" vertex="1">
          <mxGeometry x="340" y="290" width="20" height="20" as="geometry" />
        </mxCell>
        <mxCell id="fRcELl-Yo40BzhrVJfct-30" value="" style="rounded=0;whiteSpace=wrap;html=1;" parent="1" vertex="1">
          <mxGeometry x="360" y="290" width="20" height="20" as="geometry" />
        </mxCell>
        <mxCell id="fRcELl-Yo40BzhrVJfct-31" value="" style="verticalLabelPosition=bottom;shadow=0;dashed=0;align=center;html=1;verticalAlign=top;strokeWidth=1;shape=mxgraph.mockup.markup.curlyBrace;whiteSpace=wrap;strokeColor=#999999;" parent="1" vertex="1">
          <mxGeometry x="280" y="270" width="100" height="20" as="geometry" />
        </mxCell>
        <mxCell id="fRcELl-Yo40BzhrVJfct-32" value="" style="endArrow=none;dashed=1;html=1;rounded=0;" parent="1" edge="1">
          <mxGeometry width="50" height="50" relative="1" as="geometry">
            <mxPoint x="279.43" y="310" as="sourcePoint" />
            <mxPoint x="279.43" y="250" as="targetPoint" />
          </mxGeometry>
        </mxCell>
        <mxCell id="fRcELl-Yo40BzhrVJfct-33" value="&lt;b style=&quot;font-size: 15px;&quot;&gt;&lt;font style=&quot;font-size: 15px;&quot;&gt;Epock&amp;nbsp;&lt;/font&gt;&lt;/b&gt;&lt;div style=&quot;font-size: 15px;&quot;&gt;&lt;font style=&quot;font-size: 15px;&quot;&gt;of a clock&lt;/font&gt;&lt;/div&gt;" style="text;html=1;align=center;verticalAlign=middle;whiteSpace=wrap;rounded=0;" parent="1" vertex="1">
          <mxGeometry x="330" y="180" width="90" height="30" as="geometry" />
        </mxCell>
        <mxCell id="fRcELl-Yo40BzhrVJfct-35" value="timepoint" style="text;html=1;align=center;verticalAlign=middle;whiteSpace=wrap;rounded=0;" parent="1" vertex="1">
          <mxGeometry x="430" y="367" width="60" height="30" as="geometry" />
        </mxCell>
        <mxCell id="fRcELl-Yo40BzhrVJfct-36" value="duration" style="text;html=1;align=center;verticalAlign=middle;whiteSpace=wrap;rounded=0;" parent="1" vertex="1">
          <mxGeometry x="300" y="250" width="60" height="30" as="geometry" />
        </mxCell>
        <mxCell id="fRcELl-Yo40BzhrVJfct-37" value="duration" style="text;html=1;align=center;verticalAlign=middle;whiteSpace=wrap;rounded=0;" parent="1" vertex="1">
          <mxGeometry x="510" y="320" width="60" height="30" as="geometry" />
        </mxCell>
        <mxCell id="fRcELl-Yo40BzhrVJfct-38" value="duration" style="text;html=1;align=center;verticalAlign=middle;whiteSpace=wrap;rounded=0;" parent="1" vertex="1">
          <mxGeometry x="395" y="350" width="60" height="30" as="geometry" />
        </mxCell>
        <mxCell id="fRcELl-Yo40BzhrVJfct-39" value="duration" style="text;html=1;align=center;verticalAlign=middle;whiteSpace=wrap;rounded=0;" parent="1" vertex="1">
          <mxGeometry x="400" y="220" width="60" height="30" as="geometry" />
        </mxCell>
        <mxCell id="fRcELl-Yo40BzhrVJfct-40" value="timepoint" style="text;html=1;align=center;verticalAlign=middle;whiteSpace=wrap;rounded=0;" parent="1" vertex="1">
          <mxGeometry x="250" y="230" width="60" height="30" as="geometry" />
        </mxCell>
        <mxCell id="fRcELl-Yo40BzhrVJfct-41" value="timepoint" style="text;html=1;align=center;verticalAlign=middle;whiteSpace=wrap;rounded=0;" parent="1" vertex="1">
          <mxGeometry x="450" y="200" width="60" height="30" as="geometry" />
        </mxCell>
      </root>
    </mxGraphModel>
  </diagram>
</mxfile>
